# xmcd
#
# Track frame offsets: 
#        150
#        17615
#        40346
#        54784
#        70528
#        99584
#        115624
#        134070
#        152970
#        181385
#        196544
#        222964
#        248629
#
# Disc length: 3622 seconds
#
# Revision: 0
# Processed by: cddbd v1.5.2PL0 Copyright (c) Steve Scherf et al.
# Submitted via: ExactAudioCopy v1.0b3
#
DISCID=a70e240d
DTITLE=Holstuonarmusigbigbandclub - hearad
DYEAR=2014
DGENRE=Folk
TTITLE0=Kilbe
TTITLE1=Please Don't Call Me
TTITLE2=Wild West Coast Of Austria
TTITLE3=An Hag
TTITLE4=Phils Solo
TTITLE5=Life AFter Facebook
TTITLE6=Naso
TTITLE7=Hüt odr moon
TTITLE8=Der dunkle Wald
TTITLE9=Discokatz
TTITLE10=The Real Beginning
TTITLE11=The World
TTITLE12=Outro
EXTD=
EXTT0=
EXTT1=
EXTT2=
EXTT3=
EXTT4=
EXTT5=
EXTT6=
EXTT7=
EXTT8=
EXTT9=
EXTT10=
EXTT11=
EXTT12=
PLAYORDER=
